<svg width="20" height="20" viewBox="0 0 20 20" xmlns="http://www.w3.org/2000/svg"><g transform="translate(-2 -2)" fill="none" fill-rule="evenodd"><rect width="24" height="24"/><path d="M12,20 C16.418278,20 20,16.418278 20,12 C20,7.581722 16.418278,4 12,4 C7.581722,4 4,7.581722 4,12 C4,16.418278 7.581722,20 12,20 Z M12,22 C6.4771525,22 2,17.5228475 2,12 C2,6.4771525 6.4771525,2 12,2 C17.5228475,2 22,6.4771525 22,12 C22,17.5228475 17.5228475,22 12,22 Z M9.53553391,14.363961 L15.8994949,8 L17.3137085,9.41421356 L9.53553391,17.1923882 L6,13.6568542 L7.41421356,12.2426407 L9.53553391,14.363961 Z" fill="#00E034"/></g></svg>