<svg width="76" height="50" viewBox="0 0 76 50" xmlns="http://www.w3.org/2000/svg"><g transform="translate(9.5 11.7)" fill="#25335A" fill-rule="evenodd"><path d="M37.1560293,10.7944083 C38.9392139,10.3494535 40.7545206,10.2815921 42.5846737,10.4083181 C44.2612344,10.524505 45.8983846,10.8478748 47.5206885,11.248874 C47.8486584,11.3298449 47.8505479,11.330359 47.8508179,11.6321366 C47.8516277,12.8641807 47.8516277,14.0964819 47.8500081,15.328526 C47.8500081,15.4084688 47.8691734,15.4917533 47.8073585,15.6056267 C47.3760038,15.328526 46.9740719,15.059908 46.5616127,14.8067131 C45.2813153,14.0203949 43.9297553,13.3821379 42.4294616,13.0721348 C41.1569923,12.8091719 39.8864126,12.7816674 38.6379674,13.1867794 C37.5657892,13.5348261 36.8029555,14.1874779 36.5513769,15.2766018 C36.3408283,16.1878466 36.5071077,17.0471672 37.0315897,17.8393975 C37.4386503,18.4545199 37.9895858,18.9385464 38.5896492,19.3760468 C39.3146922,19.9050572 40.097501,20.3492408 40.8886779,20.7810861 C42.2666914,21.5327024 43.6746676,22.2347079 44.9922159,23.0842606 C46.0166157,23.7446239 46.9735321,24.4782467 47.7736167,25.3848646 C49.1640472,26.9613567 49.7538532,28.7838463 49.6466894,30.829199 C49.5913529,31.8843922 49.3689272,32.897172 48.8768373,33.8480027 C48.0907893,35.3664013 46.8202095,36.3994882 45.237316,37.1133181 C44.1049425,37.6240779 42.9058953,37.9227708 41.6714867,38.101164 C40.0424345,38.3363654 38.4060941,38.3440769 36.768134,38.2266048 C34.9347417,38.0949948 33.1334715,37.7813929 31.3586549,37.3253849 C31.2242277,37.2906831 31.1051868,37.2672914 31.1059966,37.0863277 C31.1113953,35.678975 31.1092358,34.2713652 31.1092358,32.8619561 C31.2550002,32.8218562 31.3249131,32.9208207 31.4080528,32.9748014 C32.4861696,33.6783492 33.5945189,34.3320292 34.7930263,34.8371339 C36.0781825,35.3787398 37.4162458,35.7224166 38.8247618,35.7578896 C39.8645479,35.7843658 40.8875981,35.6717776 41.8671889,35.2980258 C44.4215752,34.3238036 44.721202,31.5856992 43.6514533,30.0189751 C43.2009333,29.3591258 42.620305,28.8257456 41.9711136,28.3520011 C41.1772374,27.7728658 40.3183071,27.2898675 39.4510089,26.8192076 C38.1464175,26.1107758 36.8156424,25.4447574 35.5596391,24.657154 C34.6307959,24.074677 33.7505408,23.4353919 32.9906764,22.6562711 C31.6742078,21.3059836 30.9904648,19.7248646 31.0393229,17.867159 C31.0911502,15.895837 31.7481698,14.1651145 33.2568314,12.7754982 C34.3554631,11.7629754 35.6935264,11.1594203 37.1560293,10.7944083 Z M10.0463748,0.0034285235 C10.1609119,-0.0127937743 10.2246008,0.0269770204 10.2186942,0.156493753 C10.2140716,0.263770239 10.2184373,0.371308374 10.2184373,0.47884651 L10.2184373,0.47884651 L10.2184373,20.3820361 L10.2184373,20.3820361 L10.2821262,20.3961651 C10.3370835,20.2844406 10.3928112,20.1732394 10.4472549,20.0617765 C11.1714587,18.5784828 12.0376783,17.1948778 13.1807388,16.0038472 C14.5426014,14.5846578 16.1450948,13.6029471 18.0737367,13.2256479 C19.4512647,12.9558867 20.8282791,12.9802202 22.1850055,13.3512398 C23.9341373,13.8297976 25.1745288,14.9323906 25.9246703,16.6103518 C26.3260641,17.5085961 26.5538544,18.4552457 26.6915045,19.4272753 C26.8594582,20.6120264 26.8977228,21.8046269 26.8977228,22.9993207 L26.8977228,22.9993207 L26.8977266,34.8765024 C26.9013693,35.2292565 26.9122876,35.1909382 26.5040333,35.1914241 C24.8506916,35.1927323 23.1976066,35.1919474 21.5442649,35.1919474 C21.4857123,35.1919474 21.426646,35.1867144 21.3683502,35.1927323 C21.2091281,35.208693 21.1207855,35.1568863 21.1405598,34.9755629 C21.1495482,34.8928815 21.1421007,34.8083685 21.1421007,34.7249022 C21.1408166,30.6996791 21.1415871,26.6747177 21.1372213,22.6494946 C21.1361941,21.6800815 21.0596647,20.7179946 20.7918121,19.7807644 C20.722987,19.5397848 20.6369557,19.3053464 20.5329478,19.0782343 C20.0278028,17.9761646 19.1700579,17.3534377 18.0079934,17.1284187 C16.4422238,16.8254281 15.0932017,17.2958747 13.8928725,18.3045353 C12.6912593,19.3139809 11.8453277,20.5929259 11.226416,22.033309 C10.5556287,23.594051 10.2150988,25.2285784 10.2176669,26.9363677 C10.2212623,29.5400465 10.2184373,32.1437253 10.2184373,34.7476657 C10.2184373,34.8313937 10.2140716,34.9151217 10.2192078,34.998588 C10.2271689,35.1307213 10.1799159,35.2018901 10.0399545,35.192209 C9.96984542,35.1872377 9.89922272,35.1919474 9.82885682,35.1919474 L9.82885682,35.1919474 L4.83390544,35.1916857 C4.76353954,35.1916857 4.69291684,35.187761 4.62280775,35.1916857 C4.49799817,35.198227 4.45870626,35.1315062 4.46255841,35.0158569 C4.46615375,34.9085805 4.46255841,34.8010423 4.46255841,34.6935042 L4.46255841,34.6935042 L4.46281522,7.6404677 C4.46281522,6.87487991 4.4178735,6.11374016 4.25582649,5.36332806 C3.92967799,3.85125291 3.14486712,3.08147871 1.63944784,2.80098995 C1.17847418,2.71516876 0.714418799,2.64321502 0.244713602,2.64112182 C0.0636626648,2.64033687 -0.00824409036,2.57675593 0.000744254034,2.3886296 C0.0128143165,2.13823059 0.0112734575,1.88678497 0.00125787371,1.63638596 C-0.00516237228,1.48175083 0.0631490451,1.43177568 0.200799119,1.41241359 C0.79248899,1.3302555 1.38315162,1.23946296 1.97458468,1.15416507 C3.24990235,0.971010094 4.52547682,0.788640069 5.8013081,0.607054993 L5.8013081,0.607054993 L9.55920649,0.0735507141 C9.72151031,0.0505255172 9.88381413,0.0264537204 10.0463748,0.0034285235 Z M58.9214558,11.3867659 C58.9925277,11.5099061 58.9646158,11.6297043 58.9648742,11.744618 C58.9661665,18.7489572 58.9661665,25.7532963 58.9656496,32.7576355 C58.9656496,33.1676744 59.0013148,33.123457 58.5759171,33.1239712 C56.9125761,33.1251371 55.2489767,33.1244854 53.5858942,33.1244854 L53.4442673,33.1242283 C53.18815,33.1175443 53.1876331,33.1172872 53.1803967,32.8756341 C53.1778123,32.7936264 53.1798798,32.7113615 53.1798798,32.6290966 C53.1798798,28.2060747 53.1806551,23.7827957 53.178846,19.3597738 C53.1785876,18.6322439 53.1602381,17.6173011 53.0217125,16.8992831 C53.0041384,16.8075064 52.9842382,16.7157296 52.9627874,16.6247241 C52.6676452,15.3719844 52.0468645,14.6745326 50.91204,14.3542138 C50.7355232,14.3038266 50.7014087,14.0169279 50.6967567,13.6184574 C50.6941723,13.3978848 50.6548889,12.8731892 50.941761,12.8266581 C51.3547533,12.7500489 52.0548762,12.6166256 52.3208143,12.5688092 C54.2214062,12.2271529 56.122515,11.8847254 58.0233654,11.5433262 C58.3236765,11.4893399 58.6250213,11.4384385 58.9214558,11.3867659 Z"/><path d="M58.807712,0.0166066313 C58.7927419,-0.0462387845 58.7777717,-0.102651205 58.7617692,-0.15263063 C58.2571725,-1.74108563 56.7250568,-2.89605571 54.9147031,-2.89605571 C52.6937032,-2.89605571 50.8921251,-1.15889955 50.8921251,0.988731193 C50.8921251,1.53281414 51.0087889,2.05190738 51.2186289,2.52275315 C51.3998191,2.92976382 51.2026263,3.40036217 50.7783005,3.57405304 C50.6931256,3.60893967 50.6025305,3.62997062 50.5103867,3.63615619 C50.3753974,3.64555826 50.2946103,3.65075414 50.2682835,3.65174383 C49.390724,3.68514592 48.9377484,3.57875408 48.1564624,3.41050651 C45.6017317,2.86172252 38.101437,-3.94587106 20.3269851,-5.94826457 C11.8030429,-6.90801798 5.04660894,-5.45614042 -0.136670564,-3.46710776 C-5.76079468,-1.3085904 -15.6379852,-1.10842528 -4.26765296,-5.31659391 C5.41828121,-8.90100942 18.732924,-12.0798988 34.8294305,-11.5608056 C53.4427261,-10.9640215 63.8054135,-4.35956215 65.5187194,-3.12665385 C66.5640476,-2.37448824 65.2554515,-1.18413669 60.5125004,0.839040341 C59.8902075,1.10427769 59.1613169,0.836071266 58.8843694,0.239287239 C58.8510738,0.167782021 58.8252632,0.0933077294 58.807712,0.0166066313"/></g></svg>