<svg width="63" height="50" viewBox="0 0 63 50" xmlns="http://www.w3.org/2000/svg"><path d="M275.07444,3.57195681 C280.004818,3.57195681 284.002324,24.3584001 284.002324,50 L291.146238,50 C291.146238,22.3853192 283.949712,0 275.074651,0 C270.024891,0 265.51964,6.72766074 262.573753,17.2478712 C259.6285,6.72766074 255.12177,0 250.072432,0 C241.197371,0 234,22.3853192 234,50 L241.144759,50 C241.144759,24.3584001 245.142688,3.57195681 250.072432,3.57195681 C255.003655,3.57195681 259.002641,22.7595242 259.002641,46.4299449 L266.144864,46.4299449 C266.145076,22.7595242 270.142794,3.57195681 275.07444,3.57195681 M294.721998,46.4299449 C295.691001,46.4299449 296.503222,47.1971602 296.503222,48.2065206 C296.503222,49.2319395 295.691001,49.9995774 294.721998,49.9995774 C293.749614,49.9995774 292.930632,49.2315169 292.930632,48.2065206 C292.930632,47.1971602 293.749614,46.4299449 294.721998,46.4299449 M294.721998,49.7390496 C295.542671,49.7390496 296.17994,49.0795952 296.17994,48.2071545 C296.17994,47.3499271 295.542249,46.6913179 294.721998,46.6913179 C293.891183,46.6913179 293.254548,47.3499271 293.254548,48.2071545 C293.254337,49.0793839 293.891183,49.7390496 294.721998,49.7390496 Z M294.027468,47.169903 L294.832294,47.169903 C295.324825,47.169903 295.557039,47.3659856 295.557039,47.7657574 C295.557039,48.1429205 295.321656,48.3005473 295.013164,48.3332981 L295.605637,49.2560272 L295.257844,49.2560272 L294.693262,48.3584423 L294.351808,48.3584423 L294.351808,49.2560272 L294.027891,49.2560272 L294.027468,47.169903 L294.027468,47.169903 Z M294.351596,48.0966467 L294.689036,48.0966467 C294.973229,48.0966467 295.235024,48.0824899 295.235024,47.7518119 C295.235024,47.4743804 294.997528,47.4308534 294.779259,47.4308534 L294.352019,47.4308534 L294.351596,48.0966467 Z" transform="translate(-234)" fill="#25335A"/></svg>