<svg width="185" height="50" viewBox="0 0 185 50" xmlns="http://www.w3.org/2000/svg"><path d="M800.396825,46.7771426 C797.618385,47.265865 794.791065,47.4123913 791.866343,47.8026465 L782.945538,21.6309776 L782.945538,48.9258949 C780.167098,49.2187669 777.632339,49.6093835 775,50 L775,0 L782.409655,0 L792.548688,28.3695644 L792.548688,0 L800.396825,0 L800.396825,46.7771426 Z M816.07292,18.2667032 C819.07214,18.2667032 823.667352,18.1205278 826.424407,18.1205278 L826.424407,25.9141481 C822.989901,25.9141481 818.97531,25.9141481 816.07292,26.0603236 L816.07292,37.6537844 C820.619985,37.3616138 825.166872,36.9715723 829.761905,36.8253968 L829.761905,44.326486 L808.333333,46.031746 L808.333333,0 L829.761905,0 L829.761905,7.79380058 L816.07292,7.79380058 L816.07292,18.2667032 Z M858.332975,7.77763977 L850.299712,7.77763977 L850.299712,43.5538474 C847.686421,43.5538474 845.073131,43.5538474 842.557073,43.6507937 L842.557073,7.77763977 L834.52381,7.77763977 L834.52381,0 L858.333333,0 L858.332975,7.77763977 L858.332975,7.77763977 Z M871.415531,17.9131445 L881.913949,17.9131445 L881.913949,25.7868141 L871.415531,25.7868141 L871.415531,43.6507937 L863.888889,43.6507937 L863.888889,0 L885.31746,0 L885.31746,7.87385164 L871.415531,7.87385164 L871.415531,17.9131445 Z M898.015737,36.7713321 C902.529778,36.8695075 907.093008,37.2146697 911.507937,37.4603814 L911.507937,45.2380952 C904.414758,44.7947577 897.321396,44.3523309 890.079365,44.2042482 L890.079365,0 L898.015737,0 L898.015737,36.7713321 Z M917.857143,45.4455455 C920.435245,45.5923669 923.165045,45.7390074 925.793651,46.031746 L925.793651,0 L917.857143,0 L917.857143,45.4455455 Z M959.920635,0 L949.988784,23.7793685 L959.920635,50 C956.984871,49.6093835 954.049469,49.0722406 951.113885,48.5838796 L945.487834,34.1310679 L939.764207,47.4123913 C936.926018,46.923669 934.186309,46.7771426 931.349206,46.3865261 L941.427511,23.4861351 L932.327312,0 L940.74195,0 L945.87904,13.134797 L951.358819,0 L959.920635,0 Z" transform="translate(-775)" fill="#25335A"/></svg>