<svg width="84" height="50" viewBox="0 0 84 50" xmlns="http://www.w3.org/2000/svg"><g fill="#25335A"><path d="M82.6411969,1.94755348 C80.2111508,-2.19379268 67.4272359,0.507041482 51.493019,7.79868974 C52.3028666,8.42885082 53.1142242,9.14910682 53.7443853,9.86936282 C65.9872273,4.64788432 75.4396435,3.02768582 77.4202217,6.44827266 C79.6705813,10.3193341 70.7582312,19.9519402 56.4447161,29.4944513 L56.6244026,29.6741378 C74.0897298,18.3317417 85.3425343,6.62896581 82.6411969,1.94755348 Z M7.20205666,46.9597785 C5.85163958,44.5287257 8.73266358,39.9379116 14.4937049,34.4466517 C14.0432303,34.3560535 13.5937624,34.176367 13.1432878,33.9961771 C13.0531929,33.9961771 13.0531929,33.9055789 13.0531929,33.9055789 L11.7027758,33.3660161 C4.77100392,39.7577218 1.25981884,45.1588868 2.88052067,48.0399108 C4.86109884,51.3704027 13.4130693,50.2902704 24.8460637,46.0588293 L24.7564721,45.8791428 C15.5738373,49.0299482 8.82225517,49.6601093 7.20205666,46.9597785 L7.20205666,46.9597785 Z"/><path d="M0,18.9619027 C0,9.14961014 12.9636013,1.13720257 28.8973149,1.13720257 C44.9211234,1.13720257 57.8847248,9.14961014 57.8847248,18.9619027 C57.8847248,28.8642902 44.9211234,36.8761945 28.8973149,36.8761945 C12.9636013,36.8761945 0,28.8642902 0,18.9619027 Z M16.3841882,5.0983589 L21.8759514,23.73341 L27.6369928,2.66780948 C23.5857415,2.84799931 19.7151834,3.6578469 16.3841882,5.0983589 Z M27.3672113,12.8404817 L24.3965957,23.73341 L30.4279218,23.73341 L27.3672113,12.8404817 Z M35.9191818,23.73341 L41.1406603,4.91867239 C37.7200734,3.56775198 33.849012,2.75790439 29.7977608,2.66780948 L35.9191818,23.73341 Z M16.2940933,23.73341 L13.3234777,12.8404817 L10.3528621,23.73341 L16.2940933,23.73341 Z M50.5925732,25.894178 C52.0335885,23.8235049 52.8439394,21.4830504 52.8439394,18.9624061 C52.8439394,14.1914021 49.8733238,9.95996106 45.0117217,6.89925056 L50.5925732,25.894178 Z M44.4721588,23.73341 L41.410945,12.8404817 L38.4403294,23.73341 L44.4721588,23.73341 Z M45.1013133,25.894178 L37.809665,25.894178 L37.1800072,28.2346325 L38.8903007,33.8164906 C41.6812297,33.006643 44.2018741,31.7463209 46.2725472,30.215714 L45.1013133,25.894178 L45.1013133,25.894178 Z M19.0850223,33.8159873 L16.9242543,25.8936747 L9.72219767,25.8936747 L9.09203659,28.1435309 C11.6126809,30.6651819 15.0337711,32.6447534 19.0850223,33.9050756 L19.0850223,33.8159873 L19.0850223,33.8159873 Z M31.0580829,25.894178 L23.7659313,25.894178 L21.4254768,34.53574 C23.7659313,35.0763095 26.287079,35.3465942 28.8973149,35.3465942 C30.5180168,35.3465942 32.0481203,35.255996 33.5787273,34.9857112 L31.0580829,25.894178 Z M12.3329369,7.25912689 C7.83171442,10.2297425 5.04078534,14.3710886 5.04078534,18.9619027 C5.04078534,21.4830504 5.85113626,23.7329067 7.20155334,25.8035797 L12.3329369,7.25912689 Z"/></g></svg>