<svg width="153" height="50" viewBox="0 0 153 50" xmlns="http://www.w3.org/2000/svg"><path d="M20.223126,3.95847029 C23.8145418,1.7653348 27.7056894,-0.218412552 31.8839202,0.0194157179 C33.10412,0.242928482 34.0868724,0.89934214 34.655673,1.84912823 C36.0127069,4.51753851 34.2875241,7.38063967 33.1202182,8.87575109 C32.0372357,10.2025122 29.5265027,10.7054636 29.626541,8.28900623 C29.6959163,6.71048312 30.9874078,5.53699339 31.4578948,5.17357042 C32.037619,4.79678631 32.7877152,4.72673577 33.2342466,4.72673577 C33.6573974,4.3352544 33.9843427,1.59793882 30.487216,2.491799 C25.9243548,3.91666901 22.4686232,7.46500571 18.7434397,11.5997055 C12.0692323,19.5480561 8.31185249,26.7136348 6.92147247,34.1596065 C6.32200884,38.7272073 7.12480717,41.8981872 9.36398017,43.8676191 C15.1924609,47.8767242 19.6305615,45.8796157 32.9416056,42.7641799 C45.4276206,39.3139521 53.1698621,39.9562411 58.8747322,43.6164297 C61.763388,45.4745823 65.2260188,48.1706692 66.4473684,50 C62.7815946,47.3184195 57.7474799,45.9916584 54.2580189,46.3123257 C50.0136707,46.3823763 48.3153182,49.6659715 48.3153182,49.6659715 C43.2079953,40.4038393 27.6641025,45.72539 24.6273056,46.4524268 C21.5907003,47.1781275 17.0757502,48.3800574 13.3419427,48.7707752 C8.01825329,49.2176099 3.55619707,47.0807821 1.40671364,43.0579341 C-1.37155501,37.2601542 0.482029483,30.1367585 2.53147454,25.1639336 C6.08647789,16.9220197 12.3691558,9.39244541 20.223126,3.95847029 Z M134.916115,2.98438586 C136.648109,1.80207565 138.800309,0.342569462 140.77522,0.717990476 C141.381085,0.829324846 141.844852,1.31589024 141.952519,1.95558789 C142.275711,3.94345735 141.399156,5.61252294 140.608013,7.09957774 C139.925868,7.32262646 138.887432,7.51736661 138.887432,7.51736661 L138.887432,7.51736661 L139.620557,6.01549256 C140.143675,4.98669459 140.599643,4.08272031 140.541624,2.85937218 C140.388874,2.53904838 140.211965,2.52517908 140.074623,2.53904838 C138.773868,2.80332501 137.104838,4.41615345 135.493827,5.98737399 L135.493827,5.98737399 L134.451967,6.98881334 C127.831774,13.5932593 120.051973,27.3998611 118.847852,30.2926548 C121.56597,28.9720316 130.531631,20.1006202 134.912881,13.9966089 C135.80979,13.9690603 136.569356,13.8159281 136.569356,13.8159281 C135.867618,15.1924085 131.066542,21.3520869 125.371601,26.789232 C122.747454,29.3058447 119.860036,31.5999787 117.32967,33.3518801 C116.085792,36.0354944 114.851045,38.9968746 114.319367,42.1119571 C114.259827,42.5430453 114.11792,44.3931717 115.493052,44.2818373 C117.254341,43.892167 120.427476,38.652232 120.427476,38.652232 C123.441964,33.9383804 127.264145,27.8938361 132.502737,24.8344208 C133.707619,24.1533053 135.45407,23.7980232 136.644495,24.5494352 C136.922033,24.7297361 137.596188,25.563604 137.821604,25.938645 C137.821604,25.938645 138.316759,25.0662091 138.548452,24.6862283 L138.548452,24.6862283 L143.421053,24.6862283 L136.307417,37.287531 C136.307417,37.287531 133.753463,41.2545304 133.110885,43.201172 C132.853131,43.9656933 133.542885,44.2221803 134.033854,43.8885572 C136.854693,42.2331709 139.09725,38.7457073 140.85968,36.0852718 L140.85968,36.0852718 L142.485148,36.0852718 C141.245455,38.1751662 136.47063,45.4037306 132.481812,47.5730409 C131.36995,48.1711306 130.408746,48.8687753 129.12473,48.6316673 C127.251019,48.3956993 127.158189,46.0314588 127.500213,44.7108356 C126.435146,45.8367187 124.140088,48.0341476 122.080527,48.5900594 C120.287471,48.9373619 117.935535,48.2277478 118.58382,43.695147 C115.563626,47.4778557 111.850824,50.3417708 109.608267,47.5747508 C108.038915,45.6144299 108.807232,42.3047973 110.468653,37.4387634 C110.468653,37.4387634 110.625454,36.970963 110.782233,36.4998392 L110.885028,36.1903614 C110.984378,35.8905856 111.068229,35.635207 111.090116,35.5618483 C111.066148,35.547409 111.060061,35.547409 111.045794,35.547409 C109.963036,35.825935 108.531787,35.8673529 108.427544,35.8810322 C105.80625,40.4696801 102.480555,45.4888463 97.7209481,47.9917797 C97.0207317,48.3529514 95.2383282,49.1039834 93.822297,48.38145 C92.4450716,47.6026794 91.9055949,46.0451381 92.1705776,43.6261805 C92.5468417,40.5388366 93.9056153,37.842683 95.2683836,35.3253103 C97.8023642,31.3630607 101.313718,26.551744 106.011693,24.6051024 C107.060591,24.1327863 108.616056,23.8405811 109.874582,24.4664094 C110.947828,25.2446101 111.235448,26.3704931 111.235448,27.5672426 C111.235448,28.1233445 111.16963,28.6929357 111.098867,29.2494176 C110.690074,31.1960591 109.87287,32.9901384 109.223824,34.3246309 C109.536553,34.5334303 111.376975,34.1019621 111.853297,33.7409804 C118.425934,20.0310838 125.943416,9.99199146 134.846303,3.02580376 L134.846303,3.02580376 Z M101.240654,0.417826866 C103.192767,-0.0563704431 105.842241,-0.223196484 107.457625,1.53285708 C107.457625,1.53285708 108.239311,1.26795409 109.094807,0.961535025 C111.271407,0.180918652 115.548502,-0.822322883 120.802897,2.03447785 C123.116407,3.30262238 125.467012,4.58504996 127.690842,5.93698839 L127.690842,5.93698839 L129.080018,6.78730606 C128.12031,7.69342284 126.416203,9.50508509 125.379244,10.7035283 C123.253317,9.7840807 116.951064,4.97545337 113.991248,3.99944485 C113.991248,3.99944485 110.203471,2.27157651 108.356526,3.24682326 C108.384826,3.58161799 108.402226,4.02743963 108.402226,4.36185348 C108.402226,7.12152946 107.350544,9.60240028 106.167306,12.0971733 C104.126469,15.3860839 101.628629,18.9817945 97.762454,19.8740091 C96.9228292,19.9298083 95.8803254,19.8460144 95.2931043,18.7869737 C94.1693342,16.7519245 95.2852645,14.4529246 96.0876024,12.7522892 C99.2416927,6.04820575 105.858494,2.42450038 105.858494,2.42450038 C104.707572,1.97848829 103.376142,2.14569521 101.938397,2.87032202 C94.8896408,6.34129397 89.6572354,12.8499853 84.9105159,19.1914697 C80.3070164,26.0206727 77.0900164,32.0138411 76.345043,39.0519576 C76.1771563,41.5326379 76.9724192,43.4566602 78.5315857,44.3761078 C81.0070543,45.8811606 83.8364616,43.9299053 85.7488022,42.3132543 C87.9118255,40.3903747 90.0496084,37.6021326 91.4466247,34.8142714 C93.334681,31.0241209 93.8341344,27.1075177 92.4134074,26.6335108 C90.7875069,26.173787 89.3396274,27.9018458 88.6160701,28.97536 C86.8131864,31.4196879 86.3768216,34.148775 86.3328383,34.4526891 L86.3289483,34.4806193 C83.5731587,35.7072478 81.144729,37.95102 79.9540336,39.3164797 C80.3232697,36.278189 80.8863976,34.3690211 81.9181934,32.0551667 C83.8846478,27.5537202 87.6295922,24.4179239 91.4582888,24.069227 C92.6373201,23.9997162 93.7434985,24.6409299 94.2096805,25.6441715 C95.2353574,27.7908189 94.5743274,30.6061036 93.9785017,32.5988749 C91.5099169,39.3029584 86.5557292,45.1291103 81.0435763,47.8329872 C78.4996528,48.8499404 74.8969723,49.4627786 72.1799993,46.634163 C68.9844154,43.3029746 69.3823336,37.6863074 70.6915823,33.8675908 C72.3901445,28.1953149 75.5769326,22.4529569 80.7144954,15.8046725 C87.7024451,7.31654072 94.2203886,2.42469082 101.240654,0.417826866 Z M136.509245,26.7193155 C135.800469,26.4271103 135.128976,26.8017713 134.510176,27.2476788 C130.838082,30.1811304 128.337772,34.4080367 126.186713,37.9952452 L126.186713,37.9952452 L125.994967,38.3985949 C125.247004,39.9418868 124.476024,41.5265967 124.513879,43.2368902 C124.552684,43.4739982 124.714185,43.7796927 124.943786,43.8629085 C125.775067,44.1828523 126.46368,43.5433447 127.13289,42.9456349 C127.13289,42.9456349 127.601603,42.528606 127.603695,42.528606 C130.010796,39.5385372 131.936439,36.1325794 133.792649,32.8371961 C134.74244,31.1687005 135.719053,29.4310484 136.744743,27.7756621 C136.787544,27.7063156 136.862112,27.4840268 136.862112,27.4002411 C136.862112,27.1363444 136.672268,26.8720678 136.509245,26.7193155 Z M102.850732,31.9058632 C100.773481,34.5657287 97.8364144,39.4481018 97.8849216,42.1746539 C97.8932915,42.6184714 97.9771805,43.0288507 98.2301791,43.4044617 C100.34072,45.8515379 105.39936,38.8234134 106.874171,35.5417093 C105.686599,35.0270254 103.719297,33.8057671 102.850732,31.9058632 L102.850732,31.9058632 Z M20.7083813,20.4316195 C25.3780411,14.2158259 31.2081844,10.5921205 34.108915,12.4875767 C37.0660539,14.6336528 34.2550032,20.3617277 33.9148318,21.2678445 C34.9554235,21.5331284 38.2835194,19.1640463 40.2239685,17.031301 C41.7653521,15.3306657 44.4058391,13.1426926 46.0741894,12.5157619 C47.3203371,11.9160642 49.2458715,11.7212434 50.5080813,12.4734841 C51.3551634,12.961774 51.9224981,13.9650155 51.9821572,15.0244371 C52.1490878,17.9791243 48.6974671,22.8294581 46.9667807,20.3765821 C46.6105473,19.3171606 46.9998609,18.1880377 48.1203804,17.0172084 C48.6890536,16.4317937 49.3889003,16.1674621 50.2621789,16.1952664 C50.6063657,15.6515582 50.5185981,14.8578015 49.9744004,14.5367185 C49.4036238,14.188212 48.2528923,14.425882 47.1945177,15.2476335 C43.4446016,18.2164134 40.1493947,23.1368294 38.2370542,28.5586757 C37.8984125,29.5758195 37.7136989,31.1246736 38.3141138,32.1840951 C39.9564588,34.7055298 43.8006438,31.1960888 43.8006438,31.1960888 C46.3954305,28.8965175 48.8978603,25.7106353 50.8633586,22.8810676 C55.9686061,15.5224395 62.7496613,9.17695579 65.7440871,13.3022819 C65.7976273,13.3723641 65.8750693,13.5186226 65.9075759,13.5464269 C65.9505992,13.4906278 66.4785437,12.6399292 66.4785437,12.6399292 L66.4785437,12.6399292 L71.3116923,12.6399292 C71.3116923,12.6399292 69.0148598,16.6074096 66.5957189,20.7866801 L65.7877915,22.1824625 C63.3683168,26.3624309 61.0681473,30.3368906 61.061807,30.3501513 C60.8489848,30.781309 60.713031,31.3901479 61.0577915,31.6828552 C61.3360093,31.8782473 61.8192094,31.6312458 61.8234161,31.6312458 C64.0356136,30.5623974 67.2431909,26.2860783 68.2623311,24.8903288 L68.3983909,24.7033316 C68.5172414,24.5394608 68.5832703,24.4472518 68.5857322,24.4472518 L68.5857322,24.4472518 L70.2504494,24.4472518 C67.640748,28.2558751 64.4095981,32.6622917 60.3988649,35.4773859 C59.2852291,36.2161053 57.8203315,37.0030062 56.3730257,36.486912 C54.8394819,35.524996 55.1272604,34.3265528 55.2259273,32.8776801 C55.2134983,32.8776801 51.4157785,37.477394 48.2368303,36.5568037 C47.1849569,36.2223898 45.5034128,35.3157017 46.750899,30.9949834 C46.750899,30.9949834 46.80862,30.7593895 46.8687315,30.5174081 L46.9195506,30.3137771 C46.6302424,30.592011 46.1187425,31.0793487 46.1187425,31.0793487 C43.1170505,34.0062316 39.7145719,37.295904 35.4535384,36.584608 C32.2566159,35.5952687 32.3418978,32.3339719 32.230037,31.441186 C31.8707442,28.5148744 35.3925408,22.6192116 35.4057346,22.5776956 C34.4817841,22.8425985 33.6618545,23.0378003 32.9811293,23.1627293 C32.9285452,23.2465232 31.8271472,25.0583759 31.8271472,25.0583759 C30.628612,27.0378164 29.3906865,29.1006699 27.7881142,30.815017 L27.7881142,30.815017 L27.4840824,31.1359096 C25.1275496,33.881112 19.5859496,39.0098702 16.6010845,35.4838609 C14.5942838,32.4872767 16.4381694,26.0071514 20.7083813,20.4316195 Z M108.920986,26.3712531 C108.296099,26.1497243 107.444273,26.3020966 106.878736,26.7474341 C105.561241,27.5252547 104.199424,29.0685467 104.606124,31.0436868 C105.08568,33.3378208 107.566398,34.1726386 107.706783,34.0746035 C108.502635,32.6901517 109.11593,31.2087398 109.531417,29.6672064 L109.531417,29.6672064 L109.543211,29.5695514 C109.597044,29.1386532 109.658106,28.666337 109.658106,28.2065603 C109.658106,27.4570482 109.500981,26.7613034 108.920986,26.3712531 Z M64.9725349,15.1215618 C64.8949016,14.5087237 63.9981036,13.6437421 61.7543875,15.6096613 C61.0872386,16.1948855 58.3507617,19.6654766 57.4105579,20.9614255 C53.6300475,26.0349558 52.4051246,29.6997963 52.3039719,30.8980491 C52.2682147,31.2604578 52.3934605,31.6089642 52.7108773,31.8180681 C52.9745627,32.0140316 53.37076,31.9860368 53.6111172,31.9157642 C55.2966768,30.9822239 56.3300023,29.6439972 57.3562529,28.0835262 C57.3562529,28.0835262 58.0882236,26.9688769 58.0834433,26.9825886 C60.4070871,23.1356868 62.8785401,18.856675 64.9725349,15.1215618 Z M26.8041221,19.6235796 C26.7876776,19.6235796 26.7421685,19.6374818 26.7218997,19.6511935 C25.0969552,21.9787596 23.42784,24.4880061 22.3757755,27.3309046 L22.3757755,27.3309046 L22.2457493,27.7491124 C21.8788079,28.9195608 21.4271582,30.3691954 22.3034962,31.4147147 C22.7169029,31.9300472 23.5282279,31.8041659 24.1150665,31.6091547 C26.0949059,30.5922014 27.6787392,28.4731679 28.9472591,26.7864347 C28.9472591,26.7864347 30.6081189,24.0887789 30.9809592,23.4892999 L31.045629,23.3859175 L31.045629,23.3859175 L31.0546388,23.3722141 C31.0752901,23.3310789 31.1175486,23.2051976 31.1175486,23.2051976 C31.1731921,23.0802685 31.1965203,23.0240885 31.1963303,22.9825725 C31.1963303,22.9545777 31.1869596,22.9406755 31.1783549,22.9406755 C29.7486409,22.5218964 27.836874,21.616351 26.8173159,19.6654766 C26.8146389,19.6374818 26.8081376,19.6374818 26.8041221,19.6235796 Z M33.149016,14.5504302 C32.4920015,14.0345264 31.3605827,14.2992389 30.6328187,14.801431 C29.8744603,15.3725626 28.1529522,16.9475071 28.5719042,18.9545615 C28.8757447,19.9857978 29.8612665,20.8500176 31.1678381,21.2539423 L31.1678381,21.2539423 L31.5839218,21.3240245 C31.8267647,21.3798236 32.0386309,21.4354323 32.1726726,21.3240245 C32.1726726,21.3240245 33.0994913,19.2055623 33.1088609,19.177758 C33.4272337,18.2297442 33.7079373,17.2124101 33.7077461,16.3068646 C33.7077461,15.6374656 33.5542005,15.0244371 33.149016,14.5504302 Z M106.818202,3.76291752 C102.810337,5.81186886 99.0745708,9.81150415 96.8866896,14.5228163 C95.4007583,18.0206404 97.0650931,18.4523694 98.0404805,18.2575486 C99.6501278,17.8679069 106.155069,12.9754857 106.884745,4.64084908 C106.913236,4.3338587 106.915913,4.11142397 106.818202,3.76291752 Z M79.3444404,12.6403101 L76.7544342,16.8300052 L72.165467,16.8300052 L74.7545172,12.6403101 L79.3444404,12.6403101 Z M152.631579,0 C152.631579,0 152.617264,0.0303836088 152.588694,0.0880326054 L152.535155,0.194565363 C152.096356,1.05694736 150.163092,4.6200951 146.80048,7.52602548 C143.156688,10.8288383 136.623447,14.2992389 130.460781,12.7381966 C131.55281,11.288943 132.737769,9.88139589 133.954469,8.5151744 C138.345146,8.96099605 141.972494,7.67913979 145.471536,5.6996993 C149.742321,3.28891065 152.631579,0 152.631579,0 Z" fill="#25335A"/></svg>