<svg height="442" viewBox="0 0 450 442" width="450" xmlns="http://www.w3.org/2000/svg"><path d="m329.591928 77.154665c35.912309 33.062126 67.264325 64.984179 91.775901 107.166891 23.94154 42.75275 41.042639 94.626085 17.1011 123.127918-23.94154 27.931796-88.925718 32.49209-133.388578 52.443373-44.462859 19.951282-68.404398 55.293555-104.316708 71.824618-35.342272 15.961027-83.225352 12.540807-103.7466712-14.820953-20.5213196-27.931796-13.6808798-79.805132-31.3520161-126.548138-17.6711363-46.172969-59.85384891-86.075535-64.98417881-128.828284-5.70036657-42.182712 25.08161291-87.2156083 66.69428881-118.5676244 41.0426393-31.3520161 93.4860113-49.02315242 139.6589803-41.04263923 46.17297 7.98051319 86.645572 42.18271253 122.557882 75.24483863z"/></svg>