<svg height="499" viewBox="0 0 451 499" width="451" xmlns="http://www.w3.org/2000/svg"><path d="m332.706284 38.6384029c34.621997 19.7839984 69.243995 43.6896631 91.500993 79.1359931 23.081331 35.446331 32.97333 83.25766 20.608331 123.64999-13.189332 39.567997-50.284329 71.716994-89.027992 117.879657-39.567997 45.33833-81.608994 104.690325-140.136656 127.771656-59.351995 23.081332-134.3663218 9.892-161.5693196-40.39233-27.2029977-49.459996-5.7703328-135.190655-14.0136655-202.785983-8.2433326-66.770994-46.98699613-114.582324-38.74366347-149.2043211 7.41899939-35.4463304 61.82499487-57.7033286 107.98765757-73.3656606 46.162663-15.66233205 84.906327-23.9056647 120.352657-20.60833164 35.44633 4.12166633 69.243994 18.95966514 103.041658 37.91933024z"/></svg>